/* XPM */
static char * app_16x16_xpm[] = {
"16 16 18 1",
" 	c None",
".	c #525D68",
"+	c #4F5A66",
"@	c #8EA9C5",
"#	c #475462",
"$	c #4B5763",
"%	c #86A1BD",
"&	c #43505E",
"*	c #3C4045",
"=	c #717C86",
"-	c #393E43",
";	c #6B6E6F",
">	c #E9E7E2",
",	c #3C4146",
"'	c #78838C",
")	c #687076",
"!	c #465361",
"~	c #2E3741",
"                ",
"  ............  ",
" +@@@@@@@@@@@@# ",
" $%%%%%%%%%%%%& ",
" *============- ",
" ;>>>>>>>>>>>>; ",
" ;>>>>>>>>>>>>; ",
" ;>>>>>>>>>>>>; ",
" ;>>>>>>>>>>>>; ",
" ;>>>>>>>>>>>>; ",
" ;>>>>>>>>>>>>; ",
" ;>>>>>>>>>>>>; ",
" ;>>>>>>>>>>>>; ",
" ,'')'''''')'', ",
"  !!~!!!!!!~!!  ",
"                "};
