/* XPM */
static char * app_32x32_xpm[] = {
"32 32 25 1",
" 	c None",
".	c #48535D",
"+	c #6D7C8B",
"@	c #6A7A8A",
"#	c #90ABC6",
"$	c #607284",
"%	c #687787",
"&	c #8CA7C3",
"*	c #5D6F82",
"=	c #667585",
"-	c #87A2BE",
";	c #5A6C7F",
">	c #637383",
",	c #849FBB",
"'	c #586A7D",
")	c #404A55",
"!	c #536579",
"~	c #384450",
"{	c #606263",
"]	c #8F9394",
"^	c #E9E7E2",
"/	c #404C58",
"(	c #617385",
"_	c #3E4A56",
":	c #5D6F81",
"                                ",
"                                ",
"                                ",
"   .++++++++++++++++++++++++.   ",
"   @########################$   ",
"   %&&&&&&&&&&&&&&&&&&&&&&&&*   ",
"   =------------------------;   ",
"   >,,,,,,,,,,,,,,,,,,,,,,,,'   ",
"   )!!!!!!!!!!!!!!!!!!!!!!!!~   ",
"   {]]]]]]]]]]]]]]]]]]]]]]]]{   ",
"   ]^^^^^^^^^^^^^^^^^^^^^^^^]   ",
"   ]^^^^^^^^^^^^^^^^^^^^^^^^]   ",
"   ]^^^^^^^^^^^^^^^^^^^^^^^^]   ",
"   ]^^^^^^^^^^^^^^^^^^^^^^^^]   ",
"   ]^^^^^^^^^^^^^^^^^^^^^^^^]   ",
"   ]^^^^^^^^^^^^^^^^^^^^^^^^]   ",
"   ]^^^^^^^^^^^^^^^^^^^^^^^^]   ",
"   ]^^^^^^^^^^^^^^^^^^^^^^^^]   ",
"   ]^^^^^^^^^^^^^^^^^^^^^^^^]   ",
"   ]^^^^^^^^^^^^^^^^^^^^^^^^]   ",
"   ]^^^^^^^^^^^^^^^^^^^^^^^^]   ",
"   ]^^^^^^^^^^^^^^^^^^^^^^^^]   ",
"   ]^^^^^^^^^^^^^^^^^^^^^^^^]   ",
"   ]^^^^^^^^^^^^^^^^^^^^^^^^]   ",
"   ]^^^^^^^^^^^^^^^^^^^^^^^^]   ",
"   ]^^^^^^^^^^^^^^^^^^^^^^^^]   ",
"   {]]]]]]]]]]]]]]]]]]]]]]]]{   ",
"   /((((//((((((((((((//((((/   ",
"   _::::__::::::::::::__::::_   ",
"                                ",
"                                ",
"                                "};
