/* XPM */
static char * pause2_xpm[] = {
"24 24 17 1",
" 	c None",
".	c #000000",
"+	c #3B3E3A",
"@	c #585858",
"#	c #7B807A",
"$	c #9A9F98",
"%	c #B3BAB1",
"&	c #D5DCD2",
"*	c #354030",
"=	c #8EB084",
"-	c #344030",
";	c #7FA474",
">	c #303E2D",
",	c #618758",
"'	c #2A3727",
")	c #243820",
"!	c #101A0D",
"                        ",
"                        ",
"                        ",
"                        ",
"                        ",
"     .....   .....      ",
"     +++++   +++++      ",
"     @###@   @###@      ",
"     @$$$@   @$$$@      ",
"     @%%%@   @%%%@      ",
"     @&&&@   @&&&@      ",
"     @&&&@   @&&&@      ",
"     *===*   *===-      ",
"     -===*   *===-      ",
"     -;;;*   *;;;-      ",
"     >,,,*   *,,,-      ",
"     '))))   )))))      ",
"     !....   .....      ",
"     .....   .....      ",
"                        ",
"                        ",
"                        ",
"                        ",
"                        "};
